<svg xmlns="http://www.w3.org/2000/svg" xmlns:xlink="http://www.w3.org/1999/xlink" viewBox="0,0,256,256" width="100px" height="100px"><g fill="#ffffff" fill-rule="nonzero" stroke="none" stroke-width="1" stroke-linecap="butt" stroke-linejoin="miter" stroke-miterlimit="10" stroke-dasharray="" stroke-dashoffset="0" font-family="none" font-weight="none" font-size="none" text-anchor="none" style="mix-blend-mode: normal"><g transform="scale(2.56,2.56)"><path d="M31,18c-7.18,0 -13,5.82 -13,13v39c0,7.18 5.82,13 13,13h39c7.179,0 13,-5.82 13,-13v-39c0,-7.18 -5.82,-13 -13,-13zM31,20h39c6.075,0 11,4.925 11,11v39c0,6.075 -4.925,11 -11,11h-39c-6.075,0 -11,-4.925 -11,-11v-39c0,-6.075 4.924,-11 11,-11zM33.83789,23c-5.985,0 -10.83789,4.85289 -10.83789,10.83789v33.32422c0,5.985 4.85289,10.83789 10.83789,10.83789h33.32422c5.985,0 10.83789,-4.85189 10.83789,-10.83789v-18.66211c0,-0.276 -0.224,-0.5 -0.5,-0.5c-0.276,0 -0.5,0.224 -0.5,0.5v18.66211c0,5.433 -4.40489,9.83789 -9.83789,9.83789h-33.32422c-5.433,0 -9.83789,-4.40489 -9.83789,-9.83789v-33.32422c0,-5.433 4.40489,-9.83789 9.83789,-9.83789h33.66211c0.276,0 0.5,-0.224 0.5,-0.5c0,-0.276 -0.224,-0.5 -0.5,-0.5zM45.55469,34.99805c-0.82414,0 -1.59668,0.40727 -2.0625,1.08789l-2.91992,4.26172c-0.28026,0.40874 -0.74097,0.65234 -1.23633,0.65234h-5.83594c-1.92717,0 -3.5,1.57283 -3.5,3.5v20c0,1.92717 1.57283,3.5 3.5,3.5h34c1.92717,0 3.5,-1.57283 3.5,-3.5v-20c0,-1.92717 -1.57283,-3.5 -3.5,-3.5h-5.83594c-0.49586,0 -0.95615,-0.24297 -1.23633,-0.65234l-2.91992,-4.26172c-0.46574,-0.67926 -1.23785,-1.08789 -2.0625,-1.08789zM34.5,35c-0.82253,0 -1.5,0.67747 -1.5,1.5v2c0.00003,0.27613 0.22387,0.49997 0.5,0.5h5c0.27613,-0.00003 0.49997,-0.22387 0.5,-0.5v-2c0,-0.82253 -0.67747,-1.5 -1.5,-1.5zM45.55469,35.99805h9.89062c0.49535,0 0.95802,0.24555 1.23828,0.6543l2.91797,4.25977c0.46582,0.68062 1.23836,1.08789 2.0625,1.08789h5.83594c1.38683,0 2.5,1.11317 2.5,2.5v20c0,1.38683 -1.11317,2.5 -2.5,2.5h-34c-1.38683,0 -2.5,-1.11317 -2.5,-2.5v-20c0,-1.38683 1.11317,-2.5 2.5,-2.5h5.83594c0.82465,0 1.59481,-0.40863 2.06055,-1.08789c0.00065,0 0.0013,0 0.00195,0l2.91797,-4.25977c0.28018,-0.40938 0.74242,-0.6543 1.23828,-0.6543zM34.5,36h3c0.28147,0 0.5,0.21853 0.5,0.5v1.5h-4v-1.5c0,-0.28147 0.21853,-0.5 0.5,-0.5zM77.5,36.57813c-0.276,0 -0.5,0.224 -0.5,0.5v2c0,0.276 0.224,0.5 0.5,0.5c0.276,0 0.5,-0.223 0.5,-0.5v-2c0,-0.276 -0.224,-0.5 -0.5,-0.5zM77.5,40.57813c-0.276,0 -0.5,0.224 -0.5,0.5v4c0,0.276 0.224,0.5 0.5,0.5c0.276,0 0.5,-0.223 0.5,-0.5v-4c0,-0.276 -0.224,-0.5 -0.5,-0.5zM50.5,43c-5.79307,0 -10.5,4.70693 -10.5,10.5c0,5.79307 4.70693,10.5 10.5,10.5c5.79307,0 10.5,-4.70693 10.5,-10.5c0,-5.79307 -4.70693,-10.5 -10.5,-10.5zM50.5,44c5.25263,0 9.5,4.24737 9.5,9.5c0,5.25263 -4.24737,9.5 -9.5,9.5c-5.25263,0 -9.5,-4.24737 -9.5,-9.5c0,-5.25263 4.24737,-9.5 9.5,-9.5zM63.5,44c-0.79167,0 -1.44808,0.31488 -1.87305,0.79297c-0.42497,0.47809 -0.62695,1.09592 -0.62695,1.70703c0,0.61111 0.20198,1.22894 0.62695,1.70703c0.42497,0.47809 1.08138,0.79297 1.87305,0.79297c0.79167,0 1.44808,-0.31488 1.87305,-0.79297c0.42497,-0.47809 0.62695,-1.09592 0.62695,-1.70703c0,-0.61111 -0.20198,-1.22894 -0.62695,-1.70703c-0.42497,-0.47809 -1.08138,-0.79297 -1.87305,-0.79297zM63.5,45c0.54167,0 0.88526,0.18512 1.12695,0.45703c0.2417,0.27191 0.37305,0.65408 0.37305,1.04297c0,0.38889 -0.13135,0.77106 -0.37305,1.04297c-0.2417,0.27191 -0.58529,0.45703 -1.12695,0.45703c-0.54167,0 -0.88526,-0.18512 -1.12695,-0.45703c-0.2417,-0.27191 -0.37305,-0.65408 -0.37305,-1.04297c0,-0.38889 0.13135,-0.77106 0.37305,-1.04297c0.2417,-0.27191 0.58529,-0.45703 1.12695,-0.45703zM50.5,46c-4.13622,0 -7.5,3.36379 -7.5,7.5c0,4.13621 3.36378,7.5 7.5,7.5c4.13622,0 7.5,-3.36379 7.5,-7.5c0,-4.13621 -3.36378,-7.5 -7.5,-7.5zM50.5,47c3.59578,0 6.5,2.90423 6.5,6.5c0,3.59577 -2.90422,6.5 -6.5,6.5c-3.59578,0 -6.5,-2.90423 -6.5,-6.5c0,-3.59577 2.90422,-6.5 6.5,-6.5z"></path></g></g></svg>